<mxfile host="app.diagrams.net" modified="2022-11-23T07:06:10.294Z" agent="5.0 (Macintosh; Intel Mac OS X 10_15_7) AppleWebKit/537.36 (KHTML, like Gecko) Chrome/107.0.0.0 Safari/537.36" etag="Sy13JYH852TDXZ_uE-fK" version="20.6.0" type="github">
  <diagram id="a1CHIfD1MNtg-3mOQyhZ" name="第 1 页">
    <mxGraphModel dx="1185" dy="900" grid="1" gridSize="10" guides="1" tooltips="1" connect="1" arrows="1" fold="1" page="1" pageScale="1" pageWidth="827" pageHeight="1169" math="0" shadow="0">
      <root>
        <mxCell id="0" />
        <mxCell id="1" parent="0" />
        <mxCell id="5qL3P_yVnfUD6-obJIHw-1" value="" style="rounded=0;whiteSpace=wrap;html=1;strokeWidth=0;" parent="1" vertex="1">
          <mxGeometry y="300" width="826" height="510" as="geometry" />
        </mxCell>
        <mxCell id="5qL3P_yVnfUD6-obJIHw-2" value="" style="outlineConnect=0;dashed=0;verticalLabelPosition=bottom;verticalAlign=top;align=center;html=1;shape=mxgraph.aws3.router;fillColor=#3399FF;gradientColor=none;" parent="1" vertex="1">
          <mxGeometry x="379.5" y="20" width="69" height="72" as="geometry" />
        </mxCell>
        <mxCell id="5qL3P_yVnfUD6-obJIHw-5" value="&lt;font style=&quot;font-size: 12px;&quot; color=&quot;#ffffff&quot;&gt;Ingress Controller&lt;/font&gt;" style="rounded=1;whiteSpace=wrap;html=1;fillColor=#A7852D;fontColor=#333333;strokeColor=#666666;" parent="1" vertex="1">
          <mxGeometry x="448.5" y="380" width="138.75" height="50" as="geometry" />
        </mxCell>
        <mxCell id="5qL3P_yVnfUD6-obJIHw-8" value="" style="verticalLabelPosition=bottom;html=1;verticalAlign=top;align=center;strokeColor=none;fillColor=#00BEF2;shape=mxgraph.azure.azure_load_balancer;fontSize=14;fontColor=#FFFFFF;" parent="1" vertex="1">
          <mxGeometry x="363" y="270" width="101" height="60" as="geometry" />
        </mxCell>
        <mxCell id="5qL3P_yVnfUD6-obJIHw-9" value="&lt;font color=&quot;#808080&quot;&gt;Load Balancer&lt;/font&gt;" style="text;html=1;strokeColor=none;fillColor=none;align=center;verticalAlign=middle;whiteSpace=wrap;rounded=0;fontSize=14;fontColor=#FFFFFF;" parent="1" vertex="1">
          <mxGeometry x="464" y="285" width="110" height="30" as="geometry" />
        </mxCell>
        <mxCell id="5qL3P_yVnfUD6-obJIHw-11" value="&lt;font style=&quot;font-size: 12px;&quot; color=&quot;#ffffff&quot;&gt;Ingress Controller&lt;/font&gt;" style="rounded=1;whiteSpace=wrap;html=1;fillColor=#A7852D;fontColor=#333333;strokeColor=#666666;" parent="1" vertex="1">
          <mxGeometry x="240.75" y="380" width="138.75" height="50" as="geometry" />
        </mxCell>
        <mxCell id="pP445jVZ_SCYz-9O2WYY-1" value="&lt;font color=&quot;#808080&quot;&gt;路由器&lt;/font&gt;" style="text;html=1;strokeColor=none;fillColor=none;align=center;verticalAlign=middle;whiteSpace=wrap;rounded=0;fontSize=14;fontColor=#FFFFFF;" vertex="1" parent="1">
          <mxGeometry x="448.5" y="41" width="110" height="30" as="geometry" />
        </mxCell>
      </root>
    </mxGraphModel>
  </diagram>
</mxfile>
